<svg width="80" height="80" viewBox="0 0 80 80" fill="none" xmlns="http://www.w3.org/2000/svg">
<path d="M47.6562 40C47.6562 44.2285 44.2285 47.6562 40 47.6562C35.7715 47.6562 32.3438 44.2285 32.3438 40C32.3438 35.7715 35.7715 32.3438 40 32.3438C44.2285 32.3438 47.6562 35.7715 47.6562 40Z" fill="white"/>
<path d="M57.9077 26.454C57.5397 25.4567 56.9525 24.554 56.1896 23.813C55.4486 23.05 54.5465 22.4629 53.5486 22.0948C52.7393 21.7805 51.5234 21.4064 49.2841 21.3044C46.8616 21.194 46.1353 21.1702 40.0024 21.1702C33.869 21.1702 33.1427 21.1934 30.7208 21.3038C28.4814 21.4064 27.265 21.7805 26.4563 22.0948C25.4584 22.4629 24.5557 23.05 23.8153 23.813C23.0524 24.554 22.4652 25.4561 22.0966 26.454C21.7822 27.2633 21.4081 28.4797 21.3062 30.7191C21.1957 33.141 21.1719 33.8673 21.1719 40.0007C21.1719 46.1335 21.1957 46.8599 21.3062 49.2823C21.4081 51.5217 21.7822 52.7375 22.0966 53.5469C22.4652 54.5448 23.0518 55.4469 23.8147 56.1879C24.5557 56.9508 25.4578 57.538 26.4557 57.906C27.265 58.2209 28.4814 58.5951 30.7208 58.697C33.1427 58.8075 33.8684 58.8307 40.0018 58.8307C46.1359 58.8307 46.8622 58.8075 49.2834 58.697C51.5228 58.5951 52.7393 58.2209 53.5486 57.906C55.5518 57.1333 57.135 55.55 57.9077 53.5469C58.222 52.7375 58.5962 51.5217 58.6987 49.2823C58.8092 46.8599 58.8324 46.1335 58.8324 40.0007C58.8324 33.8673 58.8092 33.141 58.6987 30.7191C58.5968 28.4797 58.2227 27.2633 57.9077 26.454V26.454ZM40.0024 51.7946C33.4882 51.7946 28.2074 46.5144 28.2074 40.0001C28.2074 33.4858 33.4882 28.2057 40.0024 28.2057C46.5161 28.2057 51.7969 33.4858 51.7969 40.0001C51.7969 46.5144 46.5161 51.7946 40.0024 51.7946ZM52.2632 30.4957C50.741 30.4957 49.5068 29.2616 49.5068 27.7394C49.5068 26.2172 50.741 24.983 52.2632 24.983C53.7854 24.983 55.0195 26.2172 55.0195 27.7394C55.0189 29.2616 53.7854 30.4957 52.2632 30.4957Z" fill="white"/>
<path d="M40 0C17.912 0 0 17.912 0 40C0 62.088 17.912 80 40 80C62.088 80 80 62.088 80 40C80 17.912 62.088 0 40 0ZM62.8302 49.4696C62.7191 51.9147 62.3303 53.584 61.7627 55.0452C60.5695 58.1305 58.1305 60.5695 55.0452 61.7627C53.5846 62.3303 51.9147 62.7185 49.4702 62.8302C47.0209 62.9419 46.2384 62.9688 40.0006 62.9688C33.7622 62.9688 32.9803 62.9419 30.5304 62.8302C28.0859 62.7185 26.416 62.3303 24.9554 61.7627C23.4222 61.1859 22.0343 60.282 20.8868 59.1132C19.7186 57.9663 18.8147 56.5778 18.2379 55.0452C17.6703 53.5846 17.2815 51.9147 17.1704 49.4702C17.0575 47.0203 17.0312 46.2378 17.0312 40C17.0312 33.7622 17.0575 32.9797 17.1698 30.5304C17.2809 28.0853 17.6691 26.416 18.2367 24.9548C18.8135 23.4222 19.718 22.0337 20.8868 20.8868C22.0337 19.718 23.4222 18.8141 24.9548 18.2373C26.416 17.6697 28.0853 17.2815 30.5304 17.1698C32.9797 17.0581 33.7622 17.0312 40 17.0312C46.2378 17.0312 47.0203 17.0581 49.4696 17.1704C51.9147 17.2815 53.584 17.6697 55.0452 18.2367C56.5778 18.8135 57.9663 19.718 59.1138 20.8868C60.282 22.0343 61.1865 23.4222 61.7627 24.9548C62.3309 26.416 62.7191 28.0853 62.8308 30.5304C62.9425 32.9797 62.9688 33.7622 62.9688 40C62.9688 46.2378 62.9425 47.0203 62.8302 49.4696V49.4696Z" fill="white"/>
</svg>
